# xmcd
#
# Track frame offsets:
#	150
#	22452
#	45860
#	67975
#
# Disc length: 1265 seconds
#
# Revision: 5
# Processed by: cddbd v1.5.2PL0 Copyright (c) Steve Scherf et al.
# Submitted via: audiograbber 1.83.01
#
DISCID=2d04ef04
DTITLE=Collins, Phil - Everyday
DYEAR=1993
DGENRE=Rock
TTITLE0=Everyday
TTITLE1=Don't call me Ashley
TTITLE2=Everyday (Early demo)
TTITLE3=Doesn't anybody stay together anymore (live) 
EXTD=
EXTT0=
EXTT1=
EXTT2=
EXTT3=
PLAYORDER=
